<mxfile host="Electron" modified="2024-01-07T20:07:58.357Z" agent="Mozilla/5.0 (Windows NT 10.0; Win64; x64) AppleWebKit/537.36 (KHTML, like Gecko) draw.io/22.1.2 Chrome/114.0.5735.289 Electron/25.9.4 Safari/537.36" etag="-HQMfeWEoKRr6WkNjF33" version="22.1.2" type="device">
  <diagram name="Page-1" id="NcxANpbiZuNS4Cefm77z">
    <mxGraphModel dx="2213" dy="793" grid="1" gridSize="2" guides="1" tooltips="1" connect="1" arrows="1" fold="1" page="1" pageScale="1" pageWidth="1169" pageHeight="827" math="1" shadow="0">
      <root>
        <mxCell id="0" />
        <mxCell id="1" parent="0" />
        <mxCell id="ypyuWPcpq9SquC7dp3np-58" value="Development Operations Engineers" style="ellipse;whiteSpace=wrap;html=1;aspect=fixed;fillColor=#282828;strokeColor=none;opacity=40;fontColor=#FFFFFF;fontSize=11;fontFamily=Verdana;fontStyle=0" vertex="1" parent="1">
          <mxGeometry x="-510" y="1983" width="80" height="80" as="geometry" />
        </mxCell>
        <mxCell id="ypyuWPcpq9SquC7dp3np-57" value="Data Operations&lt;br&gt;&amp;nbsp;Engineers" style="ellipse;whiteSpace=wrap;html=1;aspect=fixed;fillColor=#282828;strokeColor=none;opacity=40;fontColor=#FFFFFF;fontSize=11;fontFamily=Verdana;fontStyle=0" vertex="1" parent="1">
          <mxGeometry x="-564" y="1947" width="80" height="80" as="geometry" />
        </mxCell>
        <UserObject label="" tooltip="Model training &amp; evaluation.  The training stage includes hyperparameter tuning." id="vpCdLgnJ_9eggc7-kFgu-1">
          <mxCell style="sketch=0;outlineConnect=0;fontColor=#232F3E;gradientColor=none;fillColor=#000000;strokeColor=none;dashed=0;verticalLabelPosition=bottom;verticalAlign=top;align=center;html=1;fontSize=12;fontStyle=0;aspect=fixed;pointerEvents=1;shape=mxgraph.aws4.sagemaker_model;fontFamily=Verdana;" parent="1" vertex="1">
            <mxGeometry x="-810" y="1230" width="78" height="78" as="geometry" />
          </mxCell>
        </UserObject>
        <mxCell id="vpCdLgnJ_9eggc7-kFgu-2" value="&lt;span style=&quot;background-color: rgb(255, 255, 255);&quot;&gt;Data&lt;br&gt;Collection&lt;br&gt;&lt;/span&gt;" style="verticalLabelPosition=middle;sketch=0;html=1;fillColor=#000000;strokeColor=#ffffff;verticalAlign=middle;align=center;points=[[0,0.5,0],[0.125,0.25,0],[0.25,0,0],[0.5,0,0],[0.75,0,0],[0.875,0.25,0],[1,0.5,0],[0.875,0.75,0],[0.75,1,0],[0.5,1,0],[0.125,0.75,0]];pointerEvents=1;shape=mxgraph.cisco_safe.compositeIcon;bgIcon=mxgraph.cisco_safe.design.blank_device;resIcon=mxgraph.cisco_safe.design.flow_collector_2;rotation=90;fontFamily=Verdana;labelPosition=right;horizontal=0;" parent="1" vertex="1">
          <mxGeometry x="-1108" y="1238.5" width="50" height="45" as="geometry" />
        </mxCell>
        <mxCell id="ypyuWPcpq9SquC7dp3np-106" style="edgeStyle=none;rounded=0;orthogonalLoop=1;jettySize=auto;html=1;fontFamily=Verdana;" edge="1" parent="1" source="vpCdLgnJ_9eggc7-kFgu-3">
          <mxGeometry relative="1" as="geometry">
            <mxPoint x="-981" y="1134" as="targetPoint" />
          </mxGeometry>
        </mxCell>
        <mxCell id="vpCdLgnJ_9eggc7-kFgu-3" value="Data&lt;br&gt;Processing" style="sketch=0;html=1;aspect=fixed;strokeColor=none;shadow=0;fillColor=#000000;verticalAlign=top;labelPosition=center;verticalLabelPosition=bottom;shape=mxgraph.gcp2.process;rotation=0;fontFamily=Verdana;" parent="1" vertex="1">
          <mxGeometry x="-1002" y="1232" width="42" height="50" as="geometry" />
        </mxCell>
        <mxCell id="vpCdLgnJ_9eggc7-kFgu-6" value="&lt;h1&gt;Machine Learning Lifecycle&lt;/h1&gt;&lt;p&gt;This sketch outlines why infracture is import.&amp;nbsp;&amp;nbsp;&lt;/p&gt;" style="text;html=1;strokeColor=none;fillColor=none;spacing=5;spacingTop=-20;whiteSpace=wrap;overflow=hidden;rounded=0;fontFamily=Verdana;" parent="1" vertex="1">
          <mxGeometry x="-1106" y="898" width="290" height="108" as="geometry" />
        </mxCell>
        <mxCell id="vpCdLgnJ_9eggc7-kFgu-8" value="&lt;h1&gt;In Brief&lt;/h1&gt;&lt;p&gt;An overarching sketch.&lt;/p&gt;" style="text;html=1;strokeColor=none;fillColor=none;spacing=5;spacingTop=-20;whiteSpace=wrap;overflow=hidden;rounded=0;fontFamily=Verdana;" parent="1" vertex="1">
          <mxGeometry x="-1128" y="22" width="290" height="94" as="geometry" />
        </mxCell>
        <UserObject label="Model &lt;br&gt;Development" tooltip="Model training &amp; evaluation.  The training stage includes hyperparameter tuning." id="vpCdLgnJ_9eggc7-kFgu-11">
          <mxCell style="sketch=0;outlineConnect=0;fontColor=#232F3E;gradientColor=none;fillColor=#000000;strokeColor=none;dashed=0;verticalLabelPosition=bottom;verticalAlign=top;align=center;html=1;fontSize=12;fontStyle=0;aspect=fixed;pointerEvents=1;shape=mxgraph.aws4.sagemaker_model;fontFamily=Verdana;" parent="1" vertex="1">
            <mxGeometry x="-695.5" y="485" width="78" height="78" as="geometry" />
          </mxCell>
        </UserObject>
        <mxCell id="vpCdLgnJ_9eggc7-kFgu-16" value="" style="edgeStyle=orthogonalEdgeStyle;rounded=0;orthogonalLoop=1;jettySize=auto;html=1;dashed=1;dashPattern=1 4;endArrow=none;endFill=0;fontFamily=Verdana;" parent="1" source="vpCdLgnJ_9eggc7-kFgu-12" target="vpCdLgnJ_9eggc7-kFgu-14" edge="1">
          <mxGeometry relative="1" as="geometry" />
        </mxCell>
        <UserObject label="&lt;span style=&quot;background-color: rgb(255, 255, 255);&quot;&gt;Data &lt;br&gt;Collection&lt;/span&gt;" tooltip="Data collection; this might be from multiple external sources." id="vpCdLgnJ_9eggc7-kFgu-12">
          <mxCell style="verticalLabelPosition=middle;sketch=0;html=1;fillColor=#000000;strokeColor=#ffffff;verticalAlign=middle;align=center;points=[[0,0.5,0],[0.125,0.25,0],[0.25,0,0],[0.5,0,0],[0.75,0,0],[0.875,0.25,0],[1,0.5,0],[0.875,0.75,0],[0.75,1,0],[0.5,1,0],[0.125,0.75,0]];pointerEvents=1;shape=mxgraph.cisco_safe.compositeIcon;bgIcon=mxgraph.cisco_safe.design.blank_device;resIcon=mxgraph.cisco_safe.design.flow_collector_2;rotation=90;fontFamily=Verdana;labelPosition=right;horizontal=0;" parent="1" vertex="1">
            <mxGeometry x="-972.5" y="501.5" width="50" height="45" as="geometry" />
          </mxCell>
        </UserObject>
        <mxCell id="vpCdLgnJ_9eggc7-kFgu-14" value="Data &lt;br&gt;Processing" style="sketch=0;html=1;aspect=fixed;strokeColor=none;shadow=0;fillColor=#000000;verticalAlign=top;labelPosition=center;verticalLabelPosition=bottom;shape=mxgraph.gcp2.process;rotation=0;fontFamily=Verdana;" parent="1" vertex="1">
          <mxGeometry x="-879.5" y="499" width="42.84" height="51" as="geometry" />
        </mxCell>
        <mxCell id="vpCdLgnJ_9eggc7-kFgu-17" value="&lt;div style=&quot;line-height: 150%&quot;&gt;Project Scope&lt;/div&gt;" style="text;html=1;resizable=0;points=[];autosize=1;align=left;verticalAlign=top;spacingTop=-4;fontSize=24;fontFamily=Verdana;fontColor=#333333;fontStyle=1" parent="1" vertex="1">
          <mxGeometry x="-1118" y="225" width="204" height="44" as="geometry" />
        </mxCell>
        <mxCell id="vpCdLgnJ_9eggc7-kFgu-22" style="edgeStyle=orthogonalEdgeStyle;rounded=0;orthogonalLoop=1;jettySize=auto;html=1;entryX=0.5;entryY=0;entryDx=0;entryDy=0;" parent="1" source="vpCdLgnJ_9eggc7-kFgu-18" target="vpCdLgnJ_9eggc7-kFgu-19" edge="1">
          <mxGeometry relative="1" as="geometry" />
        </mxCell>
        <mxCell id="vpCdLgnJ_9eggc7-kFgu-18" value="THE MACHINE LEARNING &lt;br style=&quot;font-size: 13px;&quot;&gt;DESIGN DOCUMENT" style="text;html=1;resizable=0;points=[];autosize=1;align=left;verticalAlign=top;spacingTop=-4;fontSize=13;fontColor=#282828;fontFamily=Verdana;fontStyle=1" parent="1" vertex="1">
          <mxGeometry x="-1118" y="271" width="204" height="38" as="geometry" />
        </mxCell>
        <mxCell id="vpCdLgnJ_9eggc7-kFgu-19" value="&lt;font color=&quot;#ffffff&quot; style=&quot;font-size: 11px;&quot;&gt;feasible?&lt;/font&gt;" style="rhombus;whiteSpace=wrap;html=1;rotation=0;fillColor=#333333;strokeColor=none;fontFamily=Verdana;" parent="1" vertex="1">
          <mxGeometry x="-1046" y="388" width="60" height="60" as="geometry" />
        </mxCell>
        <mxCell id="vpCdLgnJ_9eggc7-kFgu-20" value="" style="edgeStyle=orthogonalEdgeStyle;endArrow=classic;html=1;rounded=0;endSize=8;startSize=8;sourcePerimeterSpacing=0;targetPerimeterSpacing=0;entryX=0.5;entryY=1;entryDx=0;entryDy=0;entryPerimeter=0;exitX=0.5;exitY=1;exitDx=0;exitDy=0;fontFamily=Verdana;" parent="1" source="vpCdLgnJ_9eggc7-kFgu-19" target="vpCdLgnJ_9eggc7-kFgu-12" edge="1">
          <mxGeometry width="100" relative="1" as="geometry">
            <mxPoint x="-1062" y="451" as="sourcePoint" />
            <mxPoint x="-962" y="491" as="targetPoint" />
          </mxGeometry>
        </mxCell>
        <mxCell id="vpCdLgnJ_9eggc7-kFgu-21" value="YES" style="edgeLabel;html=1;align=center;verticalAlign=middle;resizable=0;points=[];fontFamily=Verdana;" parent="vpCdLgnJ_9eggc7-kFgu-20" vertex="1" connectable="0">
          <mxGeometry x="-0.3505" y="-1" relative="1" as="geometry">
            <mxPoint as="offset" />
          </mxGeometry>
        </mxCell>
        <mxCell id="ypyuWPcpq9SquC7dp3np-108" style="edgeStyle=none;rounded=0;orthogonalLoop=1;jettySize=auto;html=1;fontFamily=Verdana;" edge="1" parent="1">
          <mxGeometry relative="1" as="geometry">
            <mxPoint x="-879" y="1228" as="sourcePoint" />
            <mxPoint x="-879" y="1157" as="targetPoint" />
          </mxGeometry>
        </mxCell>
        <mxCell id="vpCdLgnJ_9eggc7-kFgu-30" value="Features&lt;br&gt;Engineering" style="editableCssRules=.*;html=1;shape=image;verticalLabelPosition=bottom;labelBackgroundColor=#ffffff;verticalAlign=top;aspect=fixed;imageAspect=0;image=data:image/svg+xml,PHN2ZyB4bWxucz0iaHR0cDovL3d3dy53My5vcmcvMjAwMC9zdmciIHhtbG5zOnY9Imh0dHBzOi8vdmVjdGEuaW8vbmFubyIgd2lkdGg9IjM2Mi4yMjI0NzgzNzUzNTMxNSIgaGVpZ2h0PSIzNzcuMzU5NDg0NzI1NTkyNSIgdmlld0JveD0iNjcuMzQ3OTk5NTcyNzUzOSAxMDguNjg4MDAzNTQwMDM5MDYgOTUuODM4MDA1MDY1OTE3OTcgOTkuODQzMDAyMzE5MzM1OTQiPiYjeGE7PHN0eWxlIHR5cGU9InRleHQvY3NzIj4uc3QwIHsgZmlsbDogcmdiKDQwLCA0MCwgNDApOyB9IC5zdDEgeyBmaWxsOiByZ2IoNTEsIDUxLCA1MSk7IH0gLnN0MiB7IGZpbGw6IHJnYigwLCAwLCAwKTsgfSA8L3N0eWxlPiYjeGE7CTxwYXRoIGNsYXNzPSJzdDAiIGQ9Ik05Ni4xOTkgMTczLjgwMXYyNS45OWwxOS4xODEgOC43NHYtMjUuOTI2em00Ljc3MSA4LjY2Mmw5LjY3MyA0LjQwOHYxMi45ODVsLTkuNjczLTQuMzc1em0tNC43NzEtMzguOTY5djIxLjY4NmwxOS4xODEgOC43MzJ2LTIxLjY4NGwtNC43MzctMi4wOTV2MTUuMDZsLTkuNjczLTQuMzk1di0xNS4xN3pNNjcuMzQ4IDEzMC4zMnY1Ni41NWwxOS4xMTQgOC43ODN2LTU2LjY1OGwtNC43MzQtMi4xMjd2NDkuOTA4bC05LjU1My00LjM4MVYxMzIuNDl6Ii8+JiN4YTsJPHBhdGggY2xhc3M9InN0MSIgZD0iTTk2LjExNiAxMTcuMzE2bDE5LjI2NC04LjYyOCA0Ny44MDYgMjEuNzYzLTE4Ljc5IDguNjMyem0xOS4yNjQgMzQuOTEybC0xOS4xODEtOC43NDYgMTkuMTgxLTguNzM5IDE5LjIxNSA4Ljc1OXpNODYuNDYyIDEzOS4wNmwtMTkuMTE0LTguNzQ2IDE5LjExNC04LjczOSAxOS4zNjIgOC43NTl6Ii8+JiN4YTsJPHBhdGggY2xhc3M9InN0MiIgZD0iTTE0NC4zOTYgMTYwLjYxM3YtMjEuNTNsMTguNzktOC42MzJ2MjEuNjU3ek0xMTUuMzggMTgyLjUzbDQ3LjgwNi0yMS43MTJ2MjUuOTA0bC00Ny44MDYgMjEuNjI2em0wLTguNjE4di0yMS42ODRsMTkuMjE1LTguNzMydjIxLjU0NXoiLz4mI3hhOzwvc3ZnPg==;fontFamily=Verdana;" parent="1" vertex="1">
          <mxGeometry x="-901" y="1237" width="38" height="40" as="geometry" />
        </mxCell>
        <mxCell id="vpCdLgnJ_9eggc7-kFgu-35" value="&lt;h1 style=&quot;font-size: 11px;&quot;&gt;&lt;span style=&quot;font-size: 11px; background-color: rgb(255, 255, 255);&quot;&gt;Machine learning engineers&lt;/span&gt;&lt;span style=&quot;font-size: 11px; background-color: rgb(255, 255, 255); font-weight: normal;&quot;&gt; ascertain automatic machine learning project lineage tracking.  This is the &lt;/span&gt;&lt;a style=&quot;font-size: 11px; background-color: rgb(255, 255, 255); font-weight: normal;&quot; href=&quot;https://docs. aws. amazon.com/wellarchitected/latest/machine-learning-lens/ml-lifecycle-architecture-diagram. html#:~:text=The%20ML%20lineage%20tracker&quot;&gt;lineage tracking&lt;/a&gt;&lt;span style=&quot;font-size: 11px; background-color: rgb(255, 255, 255); font-weight: normal;&quot;&gt; of&lt;/span&gt;&lt;/h1&gt;&lt;div style=&quot;background-color: rgb(255, 255, 255); font-size: 11px;&quot;&gt;&lt;div style=&quot;font-size: 11px;&quot;&gt;&lt;ul style=&quot;font-size: 11px;&quot;&gt;&lt;li style=&quot;font-size: 11px;&quot;&gt;The system&#39;s architecture, via &lt;i style=&quot;font-size: 11px;&quot;&gt;infrastructure as code&lt;/i&gt;.&lt;/li&gt;&lt;li style=&quot;font-size: 11px;&quot;&gt;Data&lt;/li&gt;&lt;li style=&quot;font-size: 11px;&quot;&gt;A model&#39;s underlying algorithm, and its features, parameters, and hyperparameters&lt;/li&gt;&lt;li style=&quot;font-size: 11px;&quot;&gt;Code&lt;/li&gt;&lt;/ul&gt;&lt;div&gt;Machine learning engineers optimise or re-write the code of data scientist.&amp;nbsp; Machine learning engineers depend on cloud engineers for (a) a seamless and secure cloud environments, and (b) successful model deployment, serving, and monitoring infrastructure.&amp;nbsp;&lt;/div&gt;&lt;/div&gt;&lt;/div&gt;" style="text;html=1;strokeColor=none;fillColor=none;spacing=5;spacingTop=-10;whiteSpace=wrap;overflow=hidden;rounded=0;fontFamily=Verdana;fontColor=#282828;fontSize=11;" parent="1" vertex="1">
          <mxGeometry x="-410" y="2268" width="388" height="200" as="geometry" />
        </mxCell>
        <mxCell id="ypyuWPcpq9SquC7dp3np-46" style="edgeStyle=orthogonalEdgeStyle;rounded=1;orthogonalLoop=1;jettySize=auto;html=1;strokeColor=#282828;endArrow=none;endFill=0;" edge="1" parent="1" source="ypyuWPcpq9SquC7dp3np-1" target="ypyuWPcpq9SquC7dp3np-18">
          <mxGeometry relative="1" as="geometry" />
        </mxCell>
        <mxCell id="ypyuWPcpq9SquC7dp3np-50" style="edgeStyle=none;rounded=0;orthogonalLoop=1;jettySize=auto;html=1;entryX=0.5;entryY=0;entryDx=0;entryDy=0;endArrow=blockThin;endFill=1;startArrow=blockThin;startFill=1;" edge="1" parent="1" source="ypyuWPcpq9SquC7dp3np-1" target="ypyuWPcpq9SquC7dp3np-3">
          <mxGeometry relative="1" as="geometry" />
        </mxCell>
        <mxCell id="ypyuWPcpq9SquC7dp3np-54" style="edgeStyle=none;rounded=1;orthogonalLoop=1;jettySize=auto;html=1;entryX=1;entryY=0.5;entryDx=0;entryDy=0;exitX=1;exitY=1;exitDx=0;exitDy=0;endArrow=blockThin;endFill=1;startArrow=blockThin;startFill=1;" edge="1" parent="1" source="ypyuWPcpq9SquC7dp3np-1" target="ypyuWPcpq9SquC7dp3np-51">
          <mxGeometry relative="1" as="geometry">
            <mxPoint x="-573.8973066427261" y="1834.4184298150158" as="sourcePoint" />
            <mxPoint x="-685" y="2145" as="targetPoint" />
            <Array as="points">
              <mxPoint x="-284" y="2176" />
            </Array>
          </mxGeometry>
        </mxCell>
        <mxCell id="ypyuWPcpq9SquC7dp3np-1" value="Machine Learning Engineers" style="ellipse;whiteSpace=wrap;html=1;aspect=fixed;fillColor=#282828;strokeColor=none;opacity=40;fontColor=#FFFFFF;fontSize=11;fontFamily=Verdana;fontStyle=0" vertex="1" parent="1">
          <mxGeometry x="-614" y="1764" width="80" height="80" as="geometry" />
        </mxCell>
        <mxCell id="ypyuWPcpq9SquC7dp3np-5" style="edgeStyle=none;rounded=0;orthogonalLoop=1;jettySize=auto;html=1;endArrow=blockThin;endFill=1;startArrow=blockThin;startFill=1;" edge="1" parent="1" source="ypyuWPcpq9SquC7dp3np-2" target="ypyuWPcpq9SquC7dp3np-1">
          <mxGeometry relative="1" as="geometry" />
        </mxCell>
        <mxCell id="ypyuWPcpq9SquC7dp3np-6" style="edgeStyle=none;rounded=0;orthogonalLoop=1;jettySize=auto;html=1;entryX=0;entryY=0.5;entryDx=0;entryDy=0;endArrow=blockThin;endFill=1;startArrow=blockThin;startFill=1;" edge="1" parent="1" source="ypyuWPcpq9SquC7dp3np-2" target="ypyuWPcpq9SquC7dp3np-3">
          <mxGeometry relative="1" as="geometry" />
        </mxCell>
        <mxCell id="ypyuWPcpq9SquC7dp3np-35" style="edgeStyle=none;rounded=0;orthogonalLoop=1;jettySize=auto;html=1;endArrow=none;endFill=0;strokeColor=#282828;" edge="1" parent="1" source="ypyuWPcpq9SquC7dp3np-2" target="ypyuWPcpq9SquC7dp3np-18">
          <mxGeometry relative="1" as="geometry" />
        </mxCell>
        <mxCell id="ypyuWPcpq9SquC7dp3np-53" style="edgeStyle=none;rounded=0;orthogonalLoop=1;jettySize=auto;html=1;entryX=0;entryY=0;entryDx=0;entryDy=0;" edge="1" parent="1" source="ypyuWPcpq9SquC7dp3np-2" target="ypyuWPcpq9SquC7dp3np-51">
          <mxGeometry relative="1" as="geometry" />
        </mxCell>
        <mxCell id="ypyuWPcpq9SquC7dp3np-2" value="Data Scientists" style="ellipse;whiteSpace=wrap;html=1;aspect=fixed;fillColor=#282828;strokeColor=none;opacity=40;fontColor=#FFFFFF;fontSize=11;fontFamily=Verdana;fontStyle=0" vertex="1" parent="1">
          <mxGeometry x="-841" y="1968" width="80" height="80" as="geometry" />
        </mxCell>
        <mxCell id="ypyuWPcpq9SquC7dp3np-3" value="Cloud Engineers" style="ellipse;whiteSpace=wrap;html=1;aspect=fixed;fillColor=#282828;strokeColor=none;opacity=40;fontColor=#FFFFFF;fontSize=11;fontFamily=Verdana;fontStyle=0" vertex="1" parent="1">
          <mxGeometry x="-614" y="1968" width="80" height="80" as="geometry" />
        </mxCell>
        <mxCell id="ypyuWPcpq9SquC7dp3np-7" value="Stakeholders Network" style="ellipse;whiteSpace=wrap;html=1;aspect=fixed;fillColor=#282828;strokeColor=none;fontColor=#FFFFFF;fontSize=11;fontFamily=Verdana;fontStyle=0;opacity=80;" vertex="1" parent="1">
          <mxGeometry x="-1026" y="1968" width="80" height="80" as="geometry" />
        </mxCell>
        <mxCell id="ypyuWPcpq9SquC7dp3np-45" style="edgeStyle=orthogonalEdgeStyle;rounded=1;orthogonalLoop=1;jettySize=auto;html=1;strokeColor=#282828;endArrow=none;endFill=0;" edge="1" parent="1" source="ypyuWPcpq9SquC7dp3np-8" target="ypyuWPcpq9SquC7dp3np-18">
          <mxGeometry relative="1" as="geometry" />
        </mxCell>
        <mxCell id="ypyuWPcpq9SquC7dp3np-47" style="edgeStyle=none;rounded=0;orthogonalLoop=1;jettySize=auto;html=1;exitX=1;exitY=1;exitDx=0;exitDy=0;endArrow=oval;endFill=1;" edge="1" parent="1" source="ypyuWPcpq9SquC7dp3np-8">
          <mxGeometry relative="1" as="geometry">
            <mxPoint x="-698" y="1917" as="targetPoint" />
          </mxGeometry>
        </mxCell>
        <mxCell id="ypyuWPcpq9SquC7dp3np-8" value="Human Computer Interface Engineer" style="ellipse;whiteSpace=wrap;html=1;aspect=fixed;fillColor=#282828;strokeColor=none;opacity=40;fontColor=#FFFFFF;fontSize=11;fontFamily=Verdana;fontStyle=0" vertex="1" parent="1">
          <mxGeometry x="-782.5" y="1830" width="80" height="80" as="geometry" />
        </mxCell>
        <mxCell id="ypyuWPcpq9SquC7dp3np-11" value="Interactions: Machine Learning / Artificial Intelligence Project" style="text;html=1;strokeColor=none;fillColor=none;align=center;verticalAlign=middle;whiteSpace=wrap;rounded=1;fontFamily=Verdana;fontColor=#282828;fontStyle=1;fontSize=11;" vertex="1" parent="1">
          <mxGeometry x="-1042" y="1694" width="246" height="76" as="geometry" />
        </mxCell>
        <mxCell id="ypyuWPcpq9SquC7dp3np-38" style="edgeStyle=none;rounded=0;orthogonalLoop=1;jettySize=auto;html=1;endArrow=none;endFill=0;strokeColor=#282828;" edge="1" parent="1" source="ypyuWPcpq9SquC7dp3np-18" target="ypyuWPcpq9SquC7dp3np-7">
          <mxGeometry relative="1" as="geometry" />
        </mxCell>
        <mxCell id="ypyuWPcpq9SquC7dp3np-18" value="" style="sketch=0;outlineConnect=0;fontColor=#232F3E;gradientColor=none;fillColor=#282828;strokeColor=none;dashed=0;verticalLabelPosition=bottom;verticalAlign=top;align=center;html=1;fontSize=12;fontStyle=0;aspect=fixed;pointerEvents=1;shape=mxgraph.aws4.mediaconnect_gateway;rotation=0;" vertex="1" parent="1">
          <mxGeometry x="-907" y="1988.5" width="39" height="39" as="geometry" />
        </mxCell>
        <mxCell id="ypyuWPcpq9SquC7dp3np-42" value="Security&lt;br&gt;Expert" style="ellipse;whiteSpace=wrap;html=1;aspect=fixed;fillColor=#282828;strokeColor=none;opacity=40;fontColor=#FFFFFF;fontSize=11;fontFamily=Verdana;fontStyle=0" vertex="1" parent="1">
          <mxGeometry x="-565.5" y="2088" width="80" height="80" as="geometry" />
        </mxCell>
        <mxCell id="ypyuWPcpq9SquC7dp3np-61" style="edgeStyle=orthogonalEdgeStyle;rounded=1;orthogonalLoop=1;jettySize=auto;html=1;strokeColor=#282828;endArrow=none;endFill=0;" edge="1" parent="1" source="ypyuWPcpq9SquC7dp3np-51" target="ypyuWPcpq9SquC7dp3np-18">
          <mxGeometry relative="1" as="geometry" />
        </mxCell>
        <mxCell id="ypyuWPcpq9SquC7dp3np-51" value="Data Engineers" style="ellipse;whiteSpace=wrap;html=1;aspect=fixed;fillColor=#282828;strokeColor=none;opacity=40;fontColor=#FFFFFF;fontSize=11;fontFamily=Verdana;fontStyle=0" vertex="1" parent="1">
          <mxGeometry x="-738" y="2136" width="80" height="80" as="geometry" />
        </mxCell>
        <mxCell id="ypyuWPcpq9SquC7dp3np-56" style="edgeStyle=none;rounded=0;orthogonalLoop=1;jettySize=auto;html=1;strokeColor=#282828;endArrow=none;endFill=0;" edge="1" parent="1" source="ypyuWPcpq9SquC7dp3np-52" target="ypyuWPcpq9SquC7dp3np-18">
          <mxGeometry relative="1" as="geometry" />
        </mxCell>
        <mxCell id="ypyuWPcpq9SquC7dp3np-52" value="Business Analyst" style="ellipse;whiteSpace=wrap;html=1;aspect=fixed;fillColor=#000000;strokeColor=none;fontColor=#FFFFFF;fontSize=11;fontFamily=Verdana;fontStyle=0" vertex="1" parent="1">
          <mxGeometry x="-1004" y="2084" width="80" height="80" as="geometry" />
        </mxCell>
        <mxCell id="ypyuWPcpq9SquC7dp3np-55" style="edgeStyle=none;rounded=0;orthogonalLoop=1;jettySize=auto;html=1;entryX=0.213;entryY=0.95;entryDx=0;entryDy=0;entryPerimeter=0;endArrow=blockThin;endFill=1;startArrow=blockThin;startFill=1;" edge="1" parent="1" source="ypyuWPcpq9SquC7dp3np-51" target="ypyuWPcpq9SquC7dp3np-3">
          <mxGeometry relative="1" as="geometry" />
        </mxCell>
        <mxCell id="ypyuWPcpq9SquC7dp3np-60" style="edgeStyle=none;rounded=0;orthogonalLoop=1;jettySize=auto;html=1;endArrow=blockThin;endFill=1;startArrow=blockThin;startFill=1;" edge="1" parent="1" source="ypyuWPcpq9SquC7dp3np-59" target="ypyuWPcpq9SquC7dp3np-42">
          <mxGeometry relative="1" as="geometry" />
        </mxCell>
        <mxCell id="ypyuWPcpq9SquC7dp3np-59" value="" style="sketch=0;outlineConnect=0;fontColor=#232F3E;gradientColor=none;fillColor=#333333;strokeColor=none;dashed=0;verticalLabelPosition=bottom;verticalAlign=top;align=center;html=1;fontSize=12;fontStyle=0;aspect=fixed;pointerEvents=1;shape=mxgraph.aws4.mediaconnect_gateway;rotation=0;" vertex="1" parent="1">
          <mxGeometry x="-545" y="2021" width="39" height="39" as="geometry" />
        </mxCell>
        <mxCell id="ypyuWPcpq9SquC7dp3np-62" value="Development Operations Engineers" style="ellipse;whiteSpace=wrap;html=1;aspect=fixed;fillColor=#282828;strokeColor=none;opacity=40;fontColor=#FFFFFF;fontSize=11;fontFamily=Verdana;fontStyle=0" vertex="1" parent="1">
          <mxGeometry x="-422" y="2792" width="80" height="80" as="geometry" />
        </mxCell>
        <mxCell id="ypyuWPcpq9SquC7dp3np-63" value="Data Operations&lt;br&gt;&amp;nbsp;Engineers" style="ellipse;whiteSpace=wrap;html=1;aspect=fixed;fillColor=#282828;strokeColor=none;opacity=40;fontColor=#FFFFFF;fontSize=11;fontFamily=Verdana;fontStyle=0" vertex="1" parent="1">
          <mxGeometry x="-476" y="2756" width="80" height="80" as="geometry" />
        </mxCell>
        <mxCell id="ypyuWPcpq9SquC7dp3np-69" style="edgeStyle=none;rounded=0;orthogonalLoop=1;jettySize=auto;html=1;entryX=0;entryY=0.5;entryDx=0;entryDy=0;endArrow=blockThin;endFill=1;startArrow=blockThin;startFill=1;" edge="1" parent="1" source="ypyuWPcpq9SquC7dp3np-72" target="ypyuWPcpq9SquC7dp3np-73">
          <mxGeometry relative="1" as="geometry" />
        </mxCell>
        <mxCell id="ypyuWPcpq9SquC7dp3np-70" style="edgeStyle=none;rounded=0;orthogonalLoop=1;jettySize=auto;html=1;endArrow=none;endFill=0;strokeColor=#282828;" edge="1" parent="1" source="ypyuWPcpq9SquC7dp3np-72" target="ypyuWPcpq9SquC7dp3np-79">
          <mxGeometry relative="1" as="geometry" />
        </mxCell>
        <mxCell id="ypyuWPcpq9SquC7dp3np-71" style="edgeStyle=none;rounded=0;orthogonalLoop=1;jettySize=auto;html=1;entryX=0;entryY=0;entryDx=0;entryDy=0;" edge="1" parent="1" source="ypyuWPcpq9SquC7dp3np-72" target="ypyuWPcpq9SquC7dp3np-82">
          <mxGeometry relative="1" as="geometry" />
        </mxCell>
        <mxCell id="ypyuWPcpq9SquC7dp3np-72" value="Data Scientists" style="ellipse;whiteSpace=wrap;html=1;aspect=fixed;fillColor=#282828;strokeColor=none;opacity=40;fontColor=#FFFFFF;fontSize=11;fontFamily=Verdana;fontStyle=0" vertex="1" parent="1">
          <mxGeometry x="-753" y="2777" width="80" height="80" as="geometry" />
        </mxCell>
        <mxCell id="ypyuWPcpq9SquC7dp3np-73" value="Cloud Engineers" style="ellipse;whiteSpace=wrap;html=1;aspect=fixed;fillColor=#282828;strokeColor=none;opacity=40;fontColor=#FFFFFF;fontSize=11;fontFamily=Verdana;fontStyle=0" vertex="1" parent="1">
          <mxGeometry x="-526" y="2777" width="80" height="80" as="geometry" />
        </mxCell>
        <mxCell id="ypyuWPcpq9SquC7dp3np-74" value="Stakeholders Network" style="ellipse;whiteSpace=wrap;html=1;aspect=fixed;fillColor=#282828;strokeColor=none;fontColor=#FFFFFF;fontSize=11;fontFamily=Verdana;fontStyle=0;opacity=80;" vertex="1" parent="1">
          <mxGeometry x="-938" y="2777" width="80" height="80" as="geometry" />
        </mxCell>
        <mxCell id="ypyuWPcpq9SquC7dp3np-75" style="edgeStyle=orthogonalEdgeStyle;rounded=1;orthogonalLoop=1;jettySize=auto;html=1;strokeColor=#282828;endArrow=none;endFill=0;" edge="1" parent="1" source="ypyuWPcpq9SquC7dp3np-77" target="ypyuWPcpq9SquC7dp3np-79">
          <mxGeometry relative="1" as="geometry" />
        </mxCell>
        <mxCell id="ypyuWPcpq9SquC7dp3np-77" value="Human Computer Interface Engineer" style="ellipse;whiteSpace=wrap;html=1;aspect=fixed;fillColor=#282828;strokeColor=none;opacity=40;fontColor=#FFFFFF;fontSize=11;fontFamily=Verdana;fontStyle=0" vertex="1" parent="1">
          <mxGeometry x="-694.5" y="2639" width="80" height="80" as="geometry" />
        </mxCell>
        <mxCell id="ypyuWPcpq9SquC7dp3np-78" style="edgeStyle=none;rounded=0;orthogonalLoop=1;jettySize=auto;html=1;endArrow=none;endFill=0;strokeColor=#282828;" edge="1" parent="1" source="ypyuWPcpq9SquC7dp3np-79" target="ypyuWPcpq9SquC7dp3np-74">
          <mxGeometry relative="1" as="geometry" />
        </mxCell>
        <mxCell id="ypyuWPcpq9SquC7dp3np-79" value="" style="sketch=0;outlineConnect=0;fontColor=#232F3E;gradientColor=none;fillColor=#282828;strokeColor=none;dashed=0;verticalLabelPosition=bottom;verticalAlign=top;align=center;html=1;fontSize=12;fontStyle=0;aspect=fixed;pointerEvents=1;shape=mxgraph.aws4.mediaconnect_gateway;rotation=0;" vertex="1" parent="1">
          <mxGeometry x="-819" y="2797.5" width="39" height="39" as="geometry" />
        </mxCell>
        <mxCell id="ypyuWPcpq9SquC7dp3np-80" value="Security&lt;br&gt;Expert" style="ellipse;whiteSpace=wrap;html=1;aspect=fixed;fillColor=#282828;strokeColor=none;opacity=40;fontColor=#FFFFFF;fontSize=11;fontFamily=Verdana;fontStyle=0" vertex="1" parent="1">
          <mxGeometry x="-477.5" y="2897" width="80" height="80" as="geometry" />
        </mxCell>
        <mxCell id="ypyuWPcpq9SquC7dp3np-81" style="edgeStyle=orthogonalEdgeStyle;rounded=1;orthogonalLoop=1;jettySize=auto;html=1;strokeColor=#282828;endArrow=none;endFill=0;" edge="1" parent="1" source="ypyuWPcpq9SquC7dp3np-82" target="ypyuWPcpq9SquC7dp3np-79">
          <mxGeometry relative="1" as="geometry" />
        </mxCell>
        <mxCell id="ypyuWPcpq9SquC7dp3np-82" value="Data Engineers" style="ellipse;whiteSpace=wrap;html=1;aspect=fixed;fillColor=#282828;strokeColor=none;opacity=40;fontColor=#FFFFFF;fontSize=11;fontFamily=Verdana;fontStyle=0" vertex="1" parent="1">
          <mxGeometry x="-650" y="2945" width="80" height="80" as="geometry" />
        </mxCell>
        <mxCell id="ypyuWPcpq9SquC7dp3np-83" style="edgeStyle=none;rounded=0;orthogonalLoop=1;jettySize=auto;html=1;strokeColor=#282828;endArrow=none;endFill=0;" edge="1" parent="1" source="ypyuWPcpq9SquC7dp3np-84" target="ypyuWPcpq9SquC7dp3np-79">
          <mxGeometry relative="1" as="geometry" />
        </mxCell>
        <mxCell id="ypyuWPcpq9SquC7dp3np-84" value="Business Analyst" style="ellipse;whiteSpace=wrap;html=1;aspect=fixed;fillColor=#000000;strokeColor=none;fontColor=#FFFFFF;fontSize=11;fontFamily=Verdana;fontStyle=0" vertex="1" parent="1">
          <mxGeometry x="-916" y="2893" width="80" height="80" as="geometry" />
        </mxCell>
        <mxCell id="ypyuWPcpq9SquC7dp3np-85" style="edgeStyle=none;rounded=0;orthogonalLoop=1;jettySize=auto;html=1;entryX=0.213;entryY=0.95;entryDx=0;entryDy=0;entryPerimeter=0;endArrow=blockThin;endFill=1;startArrow=blockThin;startFill=1;" edge="1" parent="1" source="ypyuWPcpq9SquC7dp3np-82" target="ypyuWPcpq9SquC7dp3np-73">
          <mxGeometry relative="1" as="geometry" />
        </mxCell>
        <mxCell id="ypyuWPcpq9SquC7dp3np-86" style="edgeStyle=none;rounded=0;orthogonalLoop=1;jettySize=auto;html=1;endArrow=blockThin;endFill=1;startArrow=blockThin;startFill=1;" edge="1" parent="1" source="ypyuWPcpq9SquC7dp3np-87" target="ypyuWPcpq9SquC7dp3np-80">
          <mxGeometry relative="1" as="geometry" />
        </mxCell>
        <mxCell id="ypyuWPcpq9SquC7dp3np-87" value="" style="sketch=0;outlineConnect=0;fontColor=#232F3E;gradientColor=none;fillColor=#333333;strokeColor=none;dashed=0;verticalLabelPosition=bottom;verticalAlign=top;align=center;html=1;fontSize=12;fontStyle=0;aspect=fixed;pointerEvents=1;shape=mxgraph.aws4.mediaconnect_gateway;rotation=0;" vertex="1" parent="1">
          <mxGeometry x="-457" y="2830" width="39" height="39" as="geometry" />
        </mxCell>
        <mxCell id="ypyuWPcpq9SquC7dp3np-89" value="Interactions: Data Intelligence Project" style="text;html=1;strokeColor=none;fillColor=none;align=center;verticalAlign=middle;whiteSpace=wrap;rounded=1;fontFamily=Verdana;fontColor=#282828;fontStyle=1;fontSize=11;" vertex="1" parent="1">
          <mxGeometry x="-1074" y="2529" width="200" height="36" as="geometry" />
        </mxCell>
        <mxCell id="ypyuWPcpq9SquC7dp3np-91" value="" style="edgeStyle=orthogonalEdgeStyle;rounded=0;orthogonalLoop=1;jettySize=auto;html=1;fontFamily=Verdana;dashed=1;dashPattern=1 4;endArrow=none;endFill=0;" edge="1" parent="1" source="vpCdLgnJ_9eggc7-kFgu-14" target="ypyuWPcpq9SquC7dp3np-90">
          <mxGeometry relative="1" as="geometry">
            <Array as="points">
              <mxPoint x="-812.5" y="524" />
            </Array>
            <mxPoint x="-837" y="524" as="sourcePoint" />
            <mxPoint x="-695" y="524" as="targetPoint" />
          </mxGeometry>
        </mxCell>
        <mxCell id="ypyuWPcpq9SquC7dp3np-92" style="edgeStyle=none;rounded=0;orthogonalLoop=1;jettySize=auto;html=1;endArrow=none;endFill=0;dashed=1;dashPattern=1 4;" edge="1" parent="1" source="ypyuWPcpq9SquC7dp3np-90" target="vpCdLgnJ_9eggc7-kFgu-11">
          <mxGeometry relative="1" as="geometry" />
        </mxCell>
        <mxCell id="ypyuWPcpq9SquC7dp3np-90" value="Features &lt;br&gt;Engineering" style="editableCssRules=.*;html=1;shape=image;verticalLabelPosition=bottom;labelBackgroundColor=#ffffff;verticalAlign=top;aspect=fixed;imageAspect=0;image=data:image/svg+xml,PHN2ZyB4bWxucz0iaHR0cDovL3d3dy53My5vcmcvMjAwMC9zdmciIHhtbG5zOnY9Imh0dHBzOi8vdmVjdGEuaW8vbmFubyIgd2lkdGg9IjM2Mi4yMjI0NzgzNzUzNTMxNSIgaGVpZ2h0PSIzNzcuMzU5NDg0NzI1NTkyNSIgdmlld0JveD0iNjcuMzQ3OTk5NTcyNzUzOSAxMDguNjg4MDAzNTQwMDM5MDYgOTUuODM4MDA1MDY1OTE3OTcgOTkuODQzMDAyMzE5MzM1OTQiPiYjeGE7PHN0eWxlIHR5cGU9InRleHQvY3NzIj4uc3QwIHsgZmlsbDogcmdiKDQwLCA0MCwgNDApOyB9IC5zdDEgeyBmaWxsOiByZ2IoNTEsIDUxLCA1MSk7IH0gLnN0MiB7IGZpbGw6IHJnYigwLCAwLCAwKTsgfSA8L3N0eWxlPiYjeGE7CTxwYXRoIGNsYXNzPSJzdDAiIGQ9Ik05Ni4xOTkgMTczLjgwMXYyNS45OWwxOS4xODEgOC43NHYtMjUuOTI2em00Ljc3MSA4LjY2Mmw5LjY3MyA0LjQwOHYxMi45ODVsLTkuNjczLTQuMzc1em0tNC43NzEtMzguOTY5djIxLjY4NmwxOS4xODEgOC43MzJ2LTIxLjY4NGwtNC43MzctMi4wOTV2MTUuMDZsLTkuNjczLTQuMzk1di0xNS4xN3pNNjcuMzQ4IDEzMC4zMnY1Ni41NWwxOS4xMTQgOC43ODN2LTU2LjY1OGwtNC43MzQtMi4xMjd2NDkuOTA4bC05LjU1My00LjM4MVYxMzIuNDl6Ii8+JiN4YTsJPHBhdGggY2xhc3M9InN0MSIgZD0iTTk2LjExNiAxMTcuMzE2bDE5LjI2NC04LjYyOCA0Ny44MDYgMjEuNzYzLTE4Ljc5IDguNjMyem0xOS4yNjQgMzQuOTEybC0xOS4xODEtOC43NDYgMTkuMTgxLTguNzM5IDE5LjIxNSA4Ljc1OXpNODYuNDYyIDEzOS4wNmwtMTkuMTE0LTguNzQ2IDE5LjExNC04LjczOSAxOS4zNjIgOC43NTl6Ii8+JiN4YTsJPHBhdGggY2xhc3M9InN0MiIgZD0iTTE0NC4zOTYgMTYwLjYxM3YtMjEuNTNsMTguNzktOC42MzJ2MjEuNjU3ek0xMTUuMzggMTgyLjUzbDQ3LjgwNi0yMS43MTJ2MjUuOTA0bC00Ny44MDYgMjEuNjI2em0wLTguNjE4di0yMS42ODRsMTkuMjE1LTguNzMydjIxLjU0NXoiLz4mI3hhOzwvc3ZnPg==;" vertex="1" parent="1">
          <mxGeometry x="-784" y="505" width="38" height="40" as="geometry" />
        </mxCell>
        <mxCell id="ypyuWPcpq9SquC7dp3np-94" value="Deploy" style="sketch=0;html=1;dashed=0;whitespace=wrap;fillColor=#282828;strokeColor=#ffffff;points=[[0.005,0.63,0],[0.1,0.2,0],[0.9,0.2,0],[0.5,0,0],[0.995,0.63,0],[0.72,0.99,0],[0.5,1,0],[0.28,0.99,0]];verticalLabelPosition=bottom;align=center;verticalAlign=top;shape=mxgraph.kubernetes.icon;prIcon=deploy" vertex="1" parent="1">
          <mxGeometry x="-574" y="502" width="50" height="48" as="geometry" />
        </mxCell>
        <mxCell id="ypyuWPcpq9SquC7dp3np-95" value="SERVE" style="text;html=1;strokeColor=none;fillColor=#282828;align=center;verticalAlign=middle;whiteSpace=wrap;rounded=1;labelBackgroundColor=none;labelBorderColor=none;fontColor=#000000;fontStyle=1;fontFamily=Verdana;fontSize=13;shadow=0;glass=0;sketch=1;curveFitting=1;jiggle=2;textOpacity=90;" vertex="1" parent="1">
          <mxGeometry x="-484" y="511" width="60" height="30" as="geometry" />
        </mxCell>
        <mxCell id="ypyuWPcpq9SquC7dp3np-96" value="" style="sketch=0;aspect=fixed;pointerEvents=1;shadow=0;dashed=0;html=1;strokeColor=none;labelPosition=center;verticalLabelPosition=bottom;verticalAlign=top;align=center;fillColor=#282828;shape=mxgraph.mscae.enterprise.monitor_running_apps" vertex="1" parent="1">
          <mxGeometry x="-474" y="600" width="50" height="39" as="geometry" />
        </mxCell>
        <mxCell id="ypyuWPcpq9SquC7dp3np-99" style="edgeStyle=none;rounded=0;orthogonalLoop=1;jettySize=auto;html=1;entryX=0.019;entryY=0.578;entryDx=0;entryDy=0;entryPerimeter=0;fontFamily=Verdana;" edge="1" parent="1" source="vpCdLgnJ_9eggc7-kFgu-2" target="vpCdLgnJ_9eggc7-kFgu-3">
          <mxGeometry relative="1" as="geometry" />
        </mxCell>
        <mxCell id="ypyuWPcpq9SquC7dp3np-104" value="" style="shape=partialRectangle;whiteSpace=wrap;html=1;left=0;right=0;fillColor=none;fontFamily=Verdana;" vertex="1" parent="1">
          <mxGeometry x="-1009" y="1066" width="252" height="62" as="geometry" />
        </mxCell>
        <mxCell id="ypyuWPcpq9SquC7dp3np-105" value="" style="sketch=0;outlineConnect=0;fontColor=#232F3E;gradientColor=none;fillColor=#000000;strokeColor=none;dashed=0;verticalLabelPosition=bottom;verticalAlign=top;align=center;html=1;fontSize=12;fontStyle=0;aspect=fixed;pointerEvents=1;shape=mxgraph.aws4.iot_analytics_data_store;rotation=0;fontFamily=Verdana;" vertex="1" parent="1">
          <mxGeometry x="-932" y="1077" width="27" height="39" as="geometry" />
        </mxCell>
        <mxCell id="ypyuWPcpq9SquC7dp3np-110" style="edgeStyle=none;rounded=0;orthogonalLoop=1;jettySize=auto;html=1;fontFamily=Verdana;" edge="1" parent="1">
          <mxGeometry relative="1" as="geometry">
            <mxPoint x="-894" y="1158" as="sourcePoint" />
            <mxPoint x="-894" y="1232" as="targetPoint" />
          </mxGeometry>
        </mxCell>
        <mxCell id="ypyuWPcpq9SquC7dp3np-112" style="edgeStyle=none;rounded=0;orthogonalLoop=1;jettySize=auto;html=1;fontFamily=Verdana;" edge="1" parent="1">
          <mxGeometry relative="1" as="geometry">
            <mxPoint x="-772" y="1151" as="sourcePoint" />
            <mxPoint x="-772" y="1225" as="targetPoint" />
          </mxGeometry>
        </mxCell>
        <mxCell id="ypyuWPcpq9SquC7dp3np-113" value="Model Artefacts &lt;br&gt;Registry" style="editableCssRules=.*;html=1;shape=image;verticalLabelPosition=bottom;labelBackgroundColor=#ffffff;verticalAlign=top;aspect=fixed;imageAspect=0;image=data:image/svg+xml,PHN2ZyB4bWxucz0iaHR0cDovL3d3dy53My5vcmcvMjAwMC9zdmciIHhtbG5zOnY9Imh0dHBzOi8vdmVjdGEuaW8vbmFubyIgd2lkdGg9IjIxLjk5OTAwMDU0OTMxNjQwNiIgaGVpZ2h0PSIyMC4zOTM5OTkwOTk3MzE0NDUiIHZpZXdCb3g9IjAgMCAyMS45OTkwMDA1NDkzMTY0MDYgMjAuMzkzOTk5MDk5NzMxNDQ1Ij4mI3hhOwk8c3R5bGUgdHlwZT0idGV4dC9jc3MiPiYjeGE7CS5zdDB7ZmlsbDojNDI4NWY0O2ZpbGwtcnVsZTpldmVub2RkfSYjeGE7CTwvc3R5bGU+JiN4YTsJPHBhdGggY2xhc3M9InN0MCIgZD0iTTUgMHYyLjQ1OEwxLjk5OSA0LjE5N3YxMi4wMUw1IDE3LjkzOHYyLjQ1NmwtNS0yLjg4N1YyLjg4NnptMTIgMGw0Ljk5OSAyLjg4NnYxNC42MjFMMTcgMjAuMzk0di0yLjQ1NmwzLTEuNzMxVjQuMTk3bC0zLTEuNzM5em0tNi4wMTYgNi42NzNsMi45NDctMS42NDYtMi45NDctMS42NDYtMi45NDcgMS42NDZ6bTMuMjY4LTEuMDk2bC0yLjg3MSAxLjY3OHYzLjI4N2wyLjg3MS0xLjY3NnpNNy43NzMgOC44NjZsMi44NzEgMS42NzRWNy4yNTZMNy43NzMgNS41Nzd6bS0uMjEyIDMuODc4bDIuODItMS42NDYtMi44Mi0xLjY0Ni0yLjgyIDEuNjQ2em0zLjEzMi0xLjA5OGwtMi44NzEgMS42Nzh2My4yODdsMi44NzEtMS42NzZ6bS02LjI2NCAzLjI4OUw3LjMgMTYuNjA5di0zLjI4NWwtMi44NzEtMS42Nzl6bTEwLjAyOS0yLjE5MWwyLjgyLTEuNjQ2LTIuODItMS42NDYtMi44MiAxLjY0NnptMy4xMzItMS4wOThsLTIuODcxIDEuNjc4djMuMjg3bDIuODcxLTEuNjc2em0tNi4yNjQgMy4yODlsMi44NzEgMS42NzR2LTMuMjg1bC0yLjg3MS0xLjY3OXoiLz4mI3hhOzwvc3ZnPg==;fontFamily=Verdana;" vertex="1" parent="1">
          <mxGeometry x="-686" y="984" width="40" height="36" as="geometry" />
        </mxCell>
        <mxCell id="ypyuWPcpq9SquC7dp3np-114" style="edgeStyle=orthogonalEdgeStyle;rounded=0;orthogonalLoop=1;jettySize=auto;html=1;fontFamily=Verdana;" edge="1" parent="1" source="vpCdLgnJ_9eggc7-kFgu-1">
          <mxGeometry relative="1" as="geometry">
            <mxPoint x="-670" y="1222" as="sourcePoint" />
            <mxPoint x="-670" y="1060" as="targetPoint" />
          </mxGeometry>
        </mxCell>
        <mxCell id="ypyuWPcpq9SquC7dp3np-119" style="edgeStyle=none;rounded=0;orthogonalLoop=1;jettySize=auto;html=1;entryX=0;entryY=0.5;entryDx=0;entryDy=0;" edge="1" parent="1" source="ypyuWPcpq9SquC7dp3np-115" target="ypyuWPcpq9SquC7dp3np-116">
          <mxGeometry relative="1" as="geometry" />
        </mxCell>
        <mxCell id="ypyuWPcpq9SquC7dp3np-115" value="Deploy" style="sketch=0;html=1;dashed=0;whitespace=wrap;fillColor=#282828;strokeColor=#ffffff;points=[[0.005,0.63,0],[0.1,0.2,0],[0.9,0.2,0],[0.5,0,0],[0.995,0.63,0],[0.72,0.99,0],[0.5,1,0],[0.28,0.99,0]];verticalLabelPosition=bottom;align=center;verticalAlign=top;shape=mxgraph.kubernetes.icon;prIcon=deploy;fontFamily=Verdana;" vertex="1" parent="1">
          <mxGeometry x="-560" y="1232" width="50" height="48" as="geometry" />
        </mxCell>
        <mxCell id="ypyuWPcpq9SquC7dp3np-116" value="SERVE" style="text;html=1;strokeColor=none;fillColor=#282828;align=center;verticalAlign=middle;whiteSpace=wrap;rounded=1;labelBackgroundColor=none;labelBorderColor=none;fontColor=#000000;fontStyle=1;fontFamily=Verdana;fontSize=13;shadow=0;glass=0;sketch=1;curveFitting=1;jiggle=2;textOpacity=90;" vertex="1" parent="1">
          <mxGeometry x="-445" y="1241" width="60" height="30" as="geometry" />
        </mxCell>
        <mxCell id="ypyuWPcpq9SquC7dp3np-117" value="" style="sketch=0;aspect=fixed;pointerEvents=1;shadow=0;dashed=0;html=1;strokeColor=none;labelPosition=center;verticalLabelPosition=bottom;verticalAlign=top;align=center;fillColor=#282828;shape=mxgraph.mscae.enterprise.monitor_running_apps;fontFamily=Verdana;" vertex="1" parent="1">
          <mxGeometry x="-440" y="1302" width="50" height="39" as="geometry" />
        </mxCell>
        <mxCell id="ypyuWPcpq9SquC7dp3np-118" style="edgeStyle=orthogonalEdgeStyle;rounded=0;orthogonalLoop=1;jettySize=auto;html=1;entryX=0.5;entryY=0;entryDx=0;entryDy=0;entryPerimeter=0;fontFamily=Verdana;" edge="1" parent="1" source="ypyuWPcpq9SquC7dp3np-113" target="ypyuWPcpq9SquC7dp3np-115">
          <mxGeometry relative="1" as="geometry" />
        </mxCell>
      </root>
    </mxGraphModel>
  </diagram>
</mxfile>
